<?xml version="1.0" standalone="no"?>
<!DOCTYPE svg PUBLIC "-//W3C//DTD SVG 20010904//EN"
 "http://www.w3.org/TR/2001/REC-SVG-20010904/DTD/svg10.dtd">
<svg version="1.0" xmlns="http://www.w3.org/2000/svg"
 width="615.000000pt" height="95.000000pt" viewBox="0 0 615.000000 95.000000"
 preserveAspectRatio="xMidYMid meet">

<g transform="translate(0.000000,95.000000) scale(0.100000,-0.100000)"
fill="#000000" stroke="none">
<path d="M1744 900 c-149 -21 -248 -122 -247 -255 0 -119 59 -185 229 -254 60
-24 120 -55 134 -68 23 -22 24 -25 10 -50 -32 -56 -140 -52 -235 8 -39 25 -50
28 -60 17 -6 -7 -35 -41 -63 -74 l-52 -62 53 -35 c82 -55 146 -72 267 -72 92
0 112 3 160 26 106 50 155 123 154 234 0 130 -44 178 -238 255 -140 56 -170
84 -130 124 36 36 117 33 195 -8 l48 -25 51 64 c27 34 50 67 50 73 0 6 -25 26
-56 45 -77 49 -176 69 -270 57z"/>
<path d="M30 800 l0 -90 110 0 110 0 0 -325 0 -325 110 0 110 0 0 325 0 325
110 0 110 0 0 90 0 90 -330 0 -330 0 0 -90z"/>
<path d="M906 873 c-9 -32 -236 -778 -242 -795 -5 -16 5 -18 105 -18 l110 0
10 38 c6 20 15 61 21 90 l12 52 118 0 118 0 17 -79 c10 -43 21 -84 24 -90 5
-8 43 -11 118 -9 l110 3 -126 413 -125 412 -132 0 c-118 0 -133 -2 -138 -17z
m175 -309 c20 -85 33 -156 31 -159 -7 -6 -137 -7 -143 0 -3 2 11 76 30 164 20
88 38 157 41 154 3 -2 21 -74 41 -159z"/>
<path d="M2230 475 l0 -415 110 0 110 0 0 103 0 104 41 57 42 58 48 -83 c26
-46 67 -119 91 -161 l43 -78 118 0 c64 0 117 2 117 4 0 3 -65 113 -145 246
-81 135 -142 247 -138 253 4 7 55 77 113 157 58 80 110 151 114 158 6 9 -19
12 -111 12 l-118 -1 -105 -157 -105 -156 -3 157 -3 157 -109 0 -110 0 0 -415z"/>
<path d="M3209 754 c-61 -18 -132 -82 -163 -147 -52 -106 -52 -271 0 -386 62
-141 206 -202 364 -155 71 21 149 97 178 175 43 115 37 269 -13 369 -66 130
-218 190 -366 144z m186 -113 c63 -36 95 -112 95 -227 0 -137 -50 -230 -137
-253 -78 -21 -145 11 -188 91 -37 68 -47 197 -21 275 41 123 150 172 251 114z"/>
<path d="M3685 738 c6 -25 135 -670 135 -675 0 -2 33 -3 74 -3 l74 0 11 48 c6
26 31 137 56 247 25 110 45 209 45 220 1 30 16 -1 24 -50 8 -43 81 -366 97
-427 l10 -38 73 0 c68 0 74 2 79 23 10 39 127 654 127 666 0 7 -21 11 -55 11
-48 0 -55 -3 -60 -22 -9 -41 -73 -432 -80 -490 -4 -32 -10 -58 -14 -58 -4 0
-14 39 -24 88 -10 48 -39 176 -65 284 l-47 198 -52 0 -52 0 -12 -42 c-18 -69
-96 -407 -110 -476 -6 -34 -13 -61 -15 -60 -1 2 -24 132 -50 291 l-48 287 -63
0 c-61 0 -63 -1 -58 -22z"/>
<path d="M4610 410 l0 -350 60 0 60 0 0 148 c0 81 -5 201 -10 266 -6 66 -8
121 -5 124 2 2 12 -13 21 -34 10 -22 74 -144 143 -271 l126 -233 63 0 62 0 0
350 0 350 -56 0 -56 0 4 -270 3 -269 -55 107 c-30 59 -95 180 -145 269 l-90
163 -62 0 -63 0 0 -350z"/>
<path d="M5310 410 l0 -350 60 0 60 0 0 350 0 350 -60 0 -60 0 0 -350z"/>
<path d="M5747 753 c-3 -5 -53 -156 -112 -337 -59 -181 -109 -335 -112 -343
-5 -11 6 -13 58 -11 l63 3 26 90 26 90 120 3 121 3 23 -84 c12 -46 25 -90 29
-96 5 -8 29 -11 67 -9 l60 3 -113 348 -114 347 -69 0 c-38 0 -71 -3 -73 -7z
m93 -160 c7 -32 25 -99 40 -150 15 -51 25 -94 22 -97 -9 -10 -172 -7 -172 3 0
5 18 75 40 155 22 80 40 148 40 151 0 3 4 4 8 1 5 -3 14 -31 22 -63z"/>
</g>
</svg>
